<svg id="3f34242b-13ba-475b-bd1f-009ba3f8c849" data-name="Layer 1" xmlns="http://www.w3.org/2000/svg" viewBox="0 0 777.69 270.73"><title>logo</title><path d="M372.91,152.86q0,64,0,127.91a19.7,19.7,0,0,1-.19,3.35,4.66,4.66,0,0,1-4.61,4.09q-5.28.14-10.56,0a4.64,4.64,0,0,1-4.61-4.08,21.38,21.38,0,0,1-.21-3.58V25.43c0-.72,0-1.44,0-2.15.19-3.68,2.1-5.59,5.76-5.66q4.32-.09,8.64,0c3.66.07,5.57,2,5.76,5.64.05.88,0,1.76,0,2.64Z" transform="translate(-31.35 -17.55)" style="fill:#fff"/><path d="M301.56,153.1V281.26a25.59,25.59,0,0,1-.05,2.63,4.68,4.68,0,0,1-4.42,4.3c-3.68.12-7.37.1-11,0a4.51,4.51,0,0,1-4.26-3.61,13.64,13.64,0,0,1-.3-3.32q0-128.28,0-256.56c0-.56,0-1.12,0-1.68.17-3.23,2.08-5.26,5.27-5.38s6.41-.11,9.6,0,5.1,2.12,5.19,5.38c0,.8,0,1.6,0,2.4Z" transform="translate(-31.35 -17.55)" style="fill:#fff"/><path d="M417.28,57V24.8c0-.56,0-1.12,0-1.68.08-3.27,1.89-5.33,5.11-5.47s6.56-.13,9.83,0a5.09,5.09,0,0,1,5.11,5.26c0,.16,0,.32,0,.48q0,33.59,0,67.18c0,3.71-1.92,5.62-5.61,5.67q-4.44.06-8.88,0c-3.69,0-5.55-1.94-5.56-5.69Q417.26,73.75,417.28,57Z" transform="translate(-31.35 -17.55)" style="fill:#fff"/><path d="M217,56.87V25c0-.64,0-1.28,0-1.92.11-3.13,1.91-5.22,5-5.36,3.36-.16,6.73-.16,10.08,0,3.16.15,5,2.28,5,5.58q0,13,0,25.91V89.23c0,.56,0,1.12,0,1.67-.09,3.27-2,5.26-5.21,5.33s-6.4.06-9.6,0-5.19-2-5.24-5.29c-.07-4.32,0-8.64,0-13Z" transform="translate(-31.35 -17.55)" style="fill:#fff"/><path d="M269.35,46.27c0,7.35-.14,14.72,0,22.07.12,4.41-2.81,6.52-6.33,6.27-2.7-.18-5.44,0-8.15,0-3.63,0-5.63-2-5.63-5.69q0-22.8,0-45.6c0-3.49,2-5.55,5.45-5.65,3-.09,6.08-.08,9.12,0,3.52.09,5.46,2.09,5.48,5.6C269.37,30.91,269.35,38.59,269.35,46.27Z" transform="translate(-31.35 -17.55)" style="fill:#fff"/><path d="M385.07,45.94q0-11,0-22.07c0-4.46,1.8-6.23,6.27-6.26,2.56,0,5.12,0,7.68,0,4.09,0,6.11,2,6.12,6q0,22.56,0,45.11c0,3.89-2.05,5.82-6,5.85q-4.08,0-8.16,0c-4,0-5.9-1.83-5.91-5.83C385.05,61.14,385.07,53.54,385.07,45.94Z" transform="translate(-31.35 -17.55)" style="fill:#fff"/><path d="M31.35,288.28v-175H47.1v160h67v15Z" transform="translate(-31.35 -17.55)" style="fill:#01bf71"/><path d="M139.14,288.28v-175h98.51v15H154.88v65.07h67v15h-67v64.94h82.77v15Z" transform="translate(-31.35 -17.55)" style="fill:#01bf71"/><path d="M501.18,288.28v-80h-67v80H418.41v-175h15.75v80.08h67V113.23h15.74v175Z" transform="translate(-31.35 -17.55)" style="fill:#01bf71"/><path d="M557,288.28v-175h98.51v15H572.71v65.07h67v15h-67v64.94h82.76v15Z" transform="translate(-31.35 -17.55)" style="fill:#01bf71"/><path d="M793.29,288.28v-120l-1.1,7.45L751.54,288.28h-8.3l-41-112.55-1-7.45v120H685.5v-175h8.18l53.1,143.55.49,6.47.49-6.47,53-143.55H809v175Z" transform="translate(-31.35 -17.55)" style="fill:#01bf71"/></svg>